br_baltics-russia_south-eastern-europe
1
    41.15377212895146     41.52761596625978
    41.304992068832625     41.737372657062686
    41.79767638909061     41.566640466874276
    41.83670088970511     41.63005528037283
    42.02694533020077     41.644689468103266
    42.417190336345705     41.56176240429746
    42.43182452407614     41.644689468103266
    42.64158121487905     41.737372657062686
    42.91963078175732     41.71786040675544
    43.01231397071674     41.58615271718152
    43.34890028851675     41.4105424644163
    43.358656413670374     41.317859275456875
    43.80743817073706     41.225176086497456
    43.55865697931966     40.87395558096701
    43.358656413670374     41.05932195888585
    43.231826786673274     41.0398097085786
    43.017192033293554     41.17639546072933
    42.948899157218186     41.30810315030325
    42.685483778070356     41.4105424644163
    42.61719090199499     41.288590899996
    42.01231114247033     41.395908276685866
    41.90011570320366     41.26907864968876
    41.15377212895146     41.52761596625978
END
END
