br_baltics-russia_central-europe
1
    19.399780260923233     54.38791763717571
    19.67126524269921     54.64056354340899
    21.4469193253868     54.55360232427008
    22.144959381718003     54.54890171783014
    23.090956427756062     54.59120717578961
    23.600972226489628     54.370278673112395
    23.87008194517624     53.738047106940364
    24.28961106994094     52.71801550947323
    23.845403761366544     52.346667600717915
    23.996998319054637     51.93066393078317
    24.41887774703931     52.198598497859784
    26.813836728189095     52.05758030466157
    29.030172664621137     51.886008169603734
    30.21942609392614     51.744989976405506
    30.835205537558352     52.330215478178104
    32.01740805720344     52.297311233098526
    32.25243837920047     52.56759610339511
    32.87056812605268     52.53469185831553
    33.9235039685994     52.63340459355429
    34.73788403431912     51.846053014864225
    34.67912645381986     51.43710025458938
    35.50290773241947     51.408896615949736
    35.883656854054664     50.677952314538956
    37.564123656333464     50.757862624017946
    38.14410323212508     50.66466155493509
    39.308048645551466     50.21494258020479
    40.524330561886124     49.824792245689714
    40.613642084244994     49.20431219561755
    40.43736934274722     48.713098822643744
    40.25169538836956     47.608456309257676
    38.72869890182877     47.403979929120254
    38.470165547632035     46.955072014105916
    37.96695377861606     46.75804992228871
    37.6313021824937     46.61819509057106
    37.1766311215601     46.04086370706158
    37.0776108897996     45.4743809855246
    36.882535722542066     45.02547307051026
    36.588747820045775     44.97846700611085
    36.17744475655096     45.140637928288804
    36.332564769069     45.74701615904115
    37.482123695328205     47.14964345109814
    37.75250970331566     47.38273483729422
    37.87371722413762     47.81162298789502
    38.479754828247444     48.13795092856954
    39.458738650270995     48.249834793943656
    39.285720764961745     49.04214127343959
    39.57950866745804     49.38293524033529
    38.513646157201485     49.58741162047271
    37.69964259072269     49.72356092221307
    37.25648586750931     50.03105742403459
    36.60983881220816     49.92705125430084
    36.035543874982665     50.03105742403459
    35.33011072374505     50.1124535568697
    35.022614221923526     50.43803808821014
    34.96835013336678     50.80884269334786
    34.54780344705206     50.90380484832215
    33.91924442126983     51.15251525420721
    33.78358419987798     51.469055770788195
    33.77906219249825     51.8850804497232
    33.47608769805645     52.016218663735316
    32.883704731312044     51.993608626836675
    32.52194414093378     51.80368431688809
    31.929561174189374     51.80368431688809
    31.321351181615913     51.808206324267815
    30.995766650275474     51.60019398480031
    31.0002886576552     51.12538320992884
    30.5526099270621     50.98520098115726
    29.94892194186837     51.2158233575234
    29.302274886567222     51.147993246827475
    28.88625020763222     51.22486737228286
    28.411439432760744     51.27008744608014
    27.69244025938394     51.24747740918151
    27.100057292639534     51.405747667472
    26.771496174953874     51.534610929223064
    26.13293744994464     51.623524169414225
    25.669510864705874     51.70166004715797
    25.1602804890656     51.70704872838168
    24.637578410366057     51.655856256756465
    24.322340558779217     51.424142964137076
    23.92357814822493     51.27056554926144
    23.58139689051956     51.21937307763623
    23.376627004018708     51.35678444884075
    23.258076017097164     51.67471664103944
    23.35507227912388     51.97917713017886
    22.91320041877994     52.06539602975816
    22.907811737556234     52.372550859509445
    23.161079755070446     52.658150964365895
    23.60564595602624     52.88447557576157
    23.317351510557938     53.746664571554625
    23.244604314037897     54.008015610904394
    22.972475912240714     54.14273264149706
    22.395887021304105     54.12656659782594
    21.566030112853287     54.09962319170741
    20.63917694237575     54.137343960273355
    19.609938828647792     54.25320060658305
    19.399780260923233     54.38791763717571
END
END
