br_baltics-russia_scandinavia
1
    27.717665562843294     60.32460514639187
    27.62261150353673     60.37733128663275
    27.698997953784836     60.626417537441796
    28.13406860519797     60.845613438153755
    28.789995732328457     61.197655339297185
    29.238350983784738     61.33382248973946
    29.447583434464338     61.549697240440636
    29.889296385899044     61.778856591184955
    31.061662339706952     62.45969234339633
    31.287500540440487     62.6755670940975
    31.34396009062387     62.79180734447505
    31.456879190990637     62.93129564492812
    31.191187190127657     63.06082049534883
    31.15133338999821     63.16709729569402
    31.01516623955593     63.21359339584504
    30.839145288984206     63.29330099610394
    30.437286137678946     63.389614346416764
    30.314403587279816     63.47596424669723
    30.26126518710722     63.4859276967296
    30.150006661745845     63.558992996966936
    29.867708910828927     63.70512359744158
    29.861066610807352     63.78483119770047
    30.20646621192923     63.907713748099596
    30.40241406256568     64.05384434857424
    30.46219476275985     64.11362504876841
    30.30610071225285     64.21325954909203
    30.20314506191844     64.26307679925384
    29.980628011195694     64.322857499448
    29.97398571117412     64.43909774982556
    29.897599260926015     64.51548420007367
    29.917526160990736     64.62840330044044
    30.007197211281994     64.66825710056989
    29.967343411152545     64.7180743507317
    29.72323888535968     64.70811090069932
    29.62692553504685     64.75792815086113
    29.560502534831105     64.84759920115239
    29.514006434680084     64.97380290156231
    29.573787134874255     65.10332775198302
    29.74980808544598     65.1597873021664
    29.563823684841893     65.18967765226348
    29.50736413465851     65.26938525252238
    29.66345818516551     65.38894665291072
    29.64021013509     65.50186575327749
    29.70995428531653     65.55500415345008
    29.587071734917405     65.67788670384921
    30.01550008630896     65.78748465420519
    29.856084885791173     66.0731035551329
    29.62692553504685     66.2026284055536
    29.44426228445355     66.43843005631949
    28.99590703299727     66.78382965744134
    28.916199432738374     66.89342760779732
    28.91952058274916     67.00634670816409
    29.90590213595298     67.62075946015973
    29.60367748497134     67.73699971053729
    29.28816823394655     67.98608596134633
    28.604011331724372     68.10896851174546
    28.321713580807454     68.56396606322332
    28.683718931983265     68.81637346404315
    28.47116533129288     68.79644656397842
    28.26525403062407     68.92265026438834
    28.81324378240397     69.115276965014
    29.062330033213016     69.16509421517581
    29.21178178369844     69.22155376535919
    29.168606833558208     69.35772091580147
    29.583750584906618     69.39093241590935
    29.839479135737236     69.53374186637319
    30.0055366362766     69.51381496630847
    30.088565386546282     69.58023796652422
    30.0321058363629     69.7695435171391
    30.560168688078072     69.64001866671839
    30.79264918883318     69.59352256656737
    30.845787589005777     69.63337636669681
    30.722905038606648     69.75293776708516
    30.769401138757672     69.87582031748428
    30.96534898939412     69.82932421733327
    31.064983489717736     69.68319361685862
    31.064983489717736     69.51049381629768
    30.736189638649797     69.45071311610351
    30.460534187754455     69.4540342661143
    30.287834387193517     69.56031106645949
    30.24798058706407     69.4540342661143
    30.038748136384473     69.34111516574754
    29.852763735780385     69.3245094156936
    29.61696208501449     69.22487491536998
    29.44426228445355     69.23483836540234
    29.294810533968125     69.0123213146796
    29.059008883202228     68.91600796436677
    28.916199432738374     68.92265026438834
    28.83649183247948     68.71009666369795
    28.547551781540992     68.53075456311545
    28.69700353202642     68.2584202622309
    29.357912384173087     68.15546461189649
    29.68338508523024     67.87980916100115
    30.131740336686523     67.7071093604402
    29.954058811109405     67.46798655966353
    29.59205345993359     67.24546950894079
    29.11048670836944     66.94656600796993
    29.130413608434164     66.8735007077326
    29.273223058898015     66.78050850743057
    29.52563045971785     66.58123950678333
    29.71825716034351     66.33215325597429
    29.94741651108783     66.18602265549964
    30.06365676146538     66.00279504189851
    30.139715682840002     65.8419011697599
    30.17899914028781     65.67531021132382
    30.172088161662735     65.63311686813914
    30.008407088963533     65.66949043985008
    29.813808480310037     65.6232960037772
    29.923656666877058     65.57055432479635
    29.765431629934497     65.4712544740255
    29.764340422783167     65.40469083779449
    29.79089313013215     65.35413157311629
    29.747062976220473     65.31302943708296
    29.65103674690361     65.26174270097054
    29.748154183371803     65.25555919377969
    29.8376331697807     65.25155810089149
    29.9194737061303     65.23555372933868
    29.950391242084592     65.20136257193039
    29.89255726306421     65.15043957153509
    29.96384946361764     65.10388139974509
    29.844544148405777     65.06969024233682
    29.74451682620071     65.06605288516572
    29.666859250597867     65.04677489215894
    29.645762579005524     64.98712223455301
    29.662858157709664     64.91401135541403
    29.737787715434187     64.85544990495943
    29.750154729815904     64.82889719761044
    30.004587863933885     64.84090047627505
    30.08424598598083     64.82344116185381
    30.146808529323636     64.77142695430719
    30.097704207513875     64.7368720611818
    30.189729343942535     64.66085129630595
    30.163540372310663     64.59865248868027
    30.062785578671377     64.55391299547583
    30.12862174346817     64.45024831609966
    30.222440142860425     64.41703267310267
    30.397361355043966     64.38059075389776
    30.53037436014187     64.31803212592935
    30.58534092160927     64.18987804339211
    30.633322781895725     64.11092055178148
    30.590807209490006     64.00584635140733
    30.392806115143355     63.88315855675081
    30.327210660574526     63.785980105537725
    30.16200729351229     63.73739087993119
    30.22790643074116     63.689409019644735
    30.437447466169363     63.597696856312396
    30.5060797473386     63.53574559366405
    30.79093408245694     63.4810827148567
    30.980432062322446     63.38997791684444
    31.108586144859693     63.35778755488011
    31.282292626403073     63.29340683095145
    31.334526043930104     63.16160855649371
    31.500944141632505     63.07900687296258
    31.71109254238079     62.96482219278722
    31.608751485947014     62.827557630448744
    31.33513340925018     62.50626137612549
    31.17053740750803     62.35138321950464
    30.718050244047124     62.146701106637096
    30.363956262439462     61.91468755436588
    30.151378400410852     61.79868077823026
    30.1264764222875     61.759202032424945
    29.82157903160646     61.563023034038544
    29.65455356858398     61.45855619898448
    29.565270866531964     61.43851314342179
    29.384276001147605     61.3249358285665
    29.261588206491094     61.22411318543293
    29.032611480820275     61.13908204062149
    28.891702726561313     61.095959102895684
    28.785110112886958     61.0255047257662
    28.703723159996002     60.911320045590834
    28.553703925935814     60.91435687219124
    28.487197423386863     60.878522318306416
    28.08633631213291     60.66776655223805
    27.905341446748555     60.56269235186391
    27.717665562843294     60.32460514639187
END
END
