br_central-europe_west-europe
1
    14.279307747206161     54.06209763071903
    14.267324975311041     53.894338824187344
    14.361190021822818     53.768519719288584
    14.554911500793933     53.24427344887706
    14.421103881298421     53.004618010974646
    14.24635512449458     52.9057601428399
    14.463043582931343     52.77494821631817
    14.78158560247663     52.56924396545193
    14.63679377541059     52.37252679350704
    14.831513818706298     52.252699074555835
    14.847490847899792     52.062971852883095
    14.728661693273182     51.82830923660365
    14.848489412224387     51.65056478682603
    14.842498026276825     51.577669591130714
    15.028230990651194     51.506771524084584
    15.147559427440106     51.281095986726484
    14.922810694364319     50.69781951279167
    14.687359640665871     50.736615425048804
    12.49451772176364     50.133093965667356
    12.786747503353306     49.913921629475105
    12.632037618982306     49.73342676437561
    12.855507451962639     49.47987445387869
    13.173522214280805     49.41970949884553
    13.901947919860932     48.84384492924236
    13.876162939132431     48.72781251596411
    13.708560564397182     48.745002503116446
    13.575338163966599     48.852439922818526
    13.40773578923135     48.87822490354703
    12.909226161813685     49.23921463374602
    12.733028793502267     49.252107124110275
    12.264601643601186     49.77640173225644
    12.393526547243685     49.883839151958526
    11.99815684274002     50.19325892070052
    11.99815684274002     50.326481321131105
    12.135676739958686     50.43391874083319
    12.30757661148202     50.360861295435775
    12.479476483005351     50.49408369586636
    14.15979772714593     50.9754033361317
    14.194177701450597     51.143005710866944
    14.447730011947513     51.13441071729078
    14.722769806384846     51.0269732975887
    14.75285228390143     50.95391585219128
    14.898967174696264     51.16019569801928
    14.83020722608693     51.40945051172811
    14.619629883470846     51.47821046033744
    14.658307354563597     51.62862284792036
    14.434837521583264     51.82201020338411
    14.615332386682763     51.98531508133128
    14.602439896318513     52.15721495285461
    14.447730011947513     52.26894986934478
    14.421945031219014     52.4709322183847
    14.495002476616431     52.53969216699402
    14.495002476616431     52.53969216699402
    14.041616565473639     52.784649483914784
    14.024426578321306     53.01671431047128
    14.269383895242056     53.154234207689946
    14.303763869546723     53.31324158884903
    14.071699042990222     54.065303526763614
    14.071699042990222     54.065303526763614
    14.279307747206161     54.06209763071903
END
END
