br_central-europe_south-europe
1
    13.739796494709186     48.802648897803444
    13.826407243743907     48.83029062621878
    13.960930322031874     48.784221078859886
    14.086239490848065     48.71050980308566
    14.145208511467448     48.642326872994495
    14.292631063015907     48.629427399734006
    14.382927375839339     48.63864130920578
    14.434525268881298     48.69945311171952
    14.545092182542643     48.66444025572677
    14.653816314309632     48.67181138330419
    14.696200297879814     48.73446596771228
    14.766226009865331     48.824762280535715
    14.91364856141379     48.81923393485265
    14.921019688991214     49.03483941649227
    15.02237269318078     49.08275174574552
    15.127411261159056     49.06985227248503
    15.201122536933285     49.025625507020486
    15.282204940284938     49.053267235435825
    15.41119967288984     49.040367762175336
    15.589949516642347     48.970342050189814
    15.731843722507739     48.911373029570434
    15.844253418063438     48.93901475798577
    16.10224288327324     48.82844784432442
    16.273621599448326     48.79159220643731
    16.343647311433845     48.78606386075424
    16.43578640615163     48.8542467908454
    16.577680612017023     48.86898904600025
    16.741688200614686     48.811862807275226
    16.833827295332473     48.7713216055994
    16.95913646414866     48.76947882370504
    16.99414932014142     48.634955745417074
    17.040218867500315     48.535445523121865
    16.98124984688093     48.439620864615364
    16.931494735733324     48.40645079051696
    16.973878719303507     48.340110642320155
    17.056803904549515     48.23691485623623
    17.156314126844727     48.14109019772974
    17.24108209398509     48.04526553922324
    17.274252168083493     47.98629651860385
    17.185798637154416     47.90705689714655
    17.136043526006812     47.82966005758362
    17.195012546626195     47.65091021383111
    16.911224134895413     47.62142570352142
    16.793286093656643     47.60115510268351
    16.78222940229051     47.48690262523345
    16.684561961889656     47.38923518483259
    16.568466702545244     47.330266164213214
    16.542667756024265     47.21785646865751
    16.60532234043236     47.17731526698169
    16.603479558538005     46.99303707754611
    16.590757459367364     46.88337884268272
    16.41152734859239     46.91255583746003
    16.46571319603599     46.76667086357343
    16.557412322478996     46.66246731079728
    16.72830614903188     46.52075047902172
    16.886695549251623     46.46239648946708
    17.036748665249274     46.3373522261357
    17.253492055023663     46.24565309969269
    17.38687260257713     46.07892741525085
    17.653633697684068     46.02057342569621
    17.78284610312649     45.92053801503111
    18.237173593230494     45.85384774125438
    18.399731135561286     45.862184025476466
    18.54561610944789     45.916369872920065
    18.674828514890315     46.012237141474124
    18.91241261521993     45.97055572036366
    19.070802015439675     45.84551145703229
    18.90407633099784     45.70796276736777
    18.72901436233391     45.774653041144504
    18.60813824111358     45.70379462525673
    18.378890425006055     45.63710435147999
    18.10796118778807     45.63710435147999
    17.770341676793354     45.69129019892359
    17.516085008019555     45.812166320143916
    17.282669049800983     45.858015883365425
    17.08259822847078     46.07059113102876
    16.786660138586523     46.17062654169386
    16.761651285920244     46.26649381024792
    16.457376911813896     46.39987435780139
    16.27273681658647     46.563611800738926
    16.248350388914925     46.7168979175315
    16.028872539871013     46.75870322211129
    15.889521524605039     46.85973270817912
    16.09506427212235     46.97469729577355
    16.182158656663585     47.06875923107808
    16.356347425746055     47.09314565874963
    16.32150967192956     47.2603668770688
    16.3737663026543     47.31262350779354
    16.331960998074507     47.469393399967764
    16.513117317920276     47.504231153784254
    16.352863650364405     47.61222819061538
    16.304090795021313     47.70977390130157
    16.43995803490564     47.80035206122445
    16.662919659331198     47.838673590422594
    16.81272200074212     47.80035206122445
    16.945105465244797     47.77944940893455
    16.910267711428304     47.904865322673935
    17.00084587135119     47.95712195339867
    17.007078164854402     48.0883376183288
    16.908442932369187     48.16201694861896
    16.90606617977918     48.23450790261412
    16.84902411761906     48.292738341069246
    16.80386581840896     48.324824501034314
    16.778909916213905     48.378301434309435
    16.793170431753936     48.44603888312458
    16.828821720604015     48.49713906380969
    16.865661385749092     48.54110898672479
    16.89180566423915     48.56012300744483
    16.87754514869912     48.66588849770006
    16.80861932358897     48.66588849770006
    16.732563240708807     48.67539550806008
    16.711172467398757     48.69084439989511
    16.639869889698602     48.68965602360011
    16.626797750453576     48.739567827990214
    16.580451074948474     48.74669808576023
    16.54123465721339     48.762146977595265
    16.474685584693244     48.76095860130026
    16.44022267213817     48.701539786550136
    16.373673599618026     48.670642002880065
    16.258401099002775     48.68014901324009
    16.050435247377326     48.70510491543514
    15.834150761686855     48.81205878198537
    15.790180838771759     48.80968202939537
    15.742645786971655     48.78591450349532
    15.617866275996386     48.82869605011541
    15.520419419806174     48.853651952310464
    15.346916480735796     48.909505638175595
    15.282744160805658     48.9118823907656
    15.192427562385461     48.880984607095534
    15.118748232095301     48.895245122635565
    15.100922587670262     48.946345303320676
    15.043880525510138     48.93446154037065
    15.016547870725079     48.80611690051037
    15.056952664755167     48.74788646205524
    14.99872222630004     48.70748166802515
    14.868000833849756     48.7300608176302
    14.802640137624614     48.66232336881506
    14.783626116904573     48.652816358455034
    14.758670214709518     48.569630017804855
    14.727772431039451     48.52566009488976
    14.648151219274279     48.51852983711974
    14.601804543769179     48.56131138373984
    14.50079255869396     48.57081839409986
    14.430678357288807     48.52803684747977
    14.334419877393596     48.49357393492469
    14.222712505663354     48.53516710524978
    14.075353845083034     48.549427620789814
    13.989790751842849     48.58151378075488
    13.961269720762786     48.636179090325
    13.979095365187826     48.663511745110064
    13.925618431912708     48.66707687399507
    13.862634488277573     48.71104679691016
    13.75568062172734     48.73719107540022
    13.739796494709186     48.802648897803444
END
END
