br_central-europe_south-eastern-europe
1
    18.731150360027033     45.89669570344857
    18.75097704124992     45.98988110519613
    18.94726118535649     46.027551799519614
    19.058290600204646     46.10884119253345
    19.216904049987733     46.10487585628887
    19.3437948098142     46.13263321000091
    19.421118866583456     46.18219991305812
    19.518269604575593     46.26547197419424
    19.623351015056887     46.26745464231653
    19.7938604735737     46.26348930607195
    19.8810978709544     46.2377146204822
    20.02979798012604     46.24564529297135
    20.257804814189225     46.22978394799305
    20.422366268339175     46.11478919690031
    20.456071626418083     46.06125715759852
    20.55520503253251     46.0295344676419
    20.686061128603555     45.95022774275036
    20.745541172272212     45.884799694714836
    20.876397268343258     45.86893834973653
    20.943807984501067     45.81540631043474
    20.943807984501067     45.69248088685285
    20.94182531637878     45.613174161961304
    21.017166705025744     45.46645672091195
    21.201554840398583     45.39706333663185
    21.351246283631365     45.33956596108549
    21.55149576398251     45.28405125366142
    21.678386523808978     45.15914316195723
    21.571322445205396     45.022339061519325
    21.68631719629813     44.93311899601634
    21.64864650197465     44.82803758553504
    21.744805905905643     44.75269619688809
    22.081859486694697     44.69519882134172
    22.139356862241065     44.615892096450175
    22.24443827272236     44.71700817068689
    22.345554346959076     44.80821090431216
    22.52201180984276     44.80821090431216
    22.70045194084873     44.701146825708584
    22.936389447401066     44.5246893628249
    22.817429360063752     44.419607952343604
    22.61519721159032     44.41167727985445
    22.773810661373407     44.30659586937316
    23.005782831681167     44.20349712701415
    23.188188298931713     44.106346389022015
    23.186205630809425     44.01316098727445
    23.089054892817288     43.937819598627485
    23.271460360067834     43.94178493487206
    23.50938053474246     43.9378195986275
    23.7968674124743     43.896183568059435
    24.127972988896488     43.8168768431679
    24.244950408111514     43.81291150692332
    24.423390539117484     43.87833955495884
    24.62165735134634     43.87239155059198
    24.71682542121619     43.8168768431679
    24.928970910301068     43.8327381881462
    25.451403960524097     43.75937946762152
    25.673462790220416     43.812911506923314
    25.853885589348675     43.935836930505204
    26.026377715987778     44.056779685964806
    26.27421123127385     44.1440170833455
    26.639022165774943     44.17772244142441
    26.972110410319424     44.23323714884849
    27.34584335137081     44.229271812603905
    27.48264745180872     44.13212107461177
    27.64720890595867     44.13806907897863
    27.928747779323647     44.10436372089973
    28.125031923430214     43.9695422885841
    28.259853355745836     43.85653020561366
    28.6821616657933     43.81687684316788
    28.674230993304146     43.61266202657216
    28.245974678889816     43.61861003093903
    28.02193318107121     43.71774343705346
    27.847458386309818     43.84661686500221
    27.863319731288126     43.880322223081116
    27.672983591548423     43.84463419687992
    27.480664783686432     43.90411424054858
    27.254640617745537     43.94773293923893
    27.187229901587727     44.03497033661963
    26.749060246561957     43.971524956706396
    26.310890591536186     43.8842875593257
    26.148311805508524     43.80696350255645
    25.95797566576882     43.67809007460769
    25.704194146115885     43.549216646658934
    25.458343298952105     43.501632611724006
    25.2343018011335     43.50163261172401
    24.97655494523599     43.56904332788182
    24.750530779295094     43.53335530168063
    24.540367958332507     43.612662026572174
    24.266759757456683     43.54128597416978
    24.034787587148923     43.555164651025805
    23.76911005876226     43.64835005277337
    23.590669927756288     43.65826339338481
    23.428091141728626     43.70386476019745
    23.14456960024136     43.69395141958601
    22.853117386264945     43.68602074709685
    22.66872925089211     43.810928838801026
    22.73613996704992     44.04488367723108
    22.539855822943355     44.17573977330211
    22.35745035569281     44.30461320125087
    22.339606342592212     44.43943463356649
    22.212715582765743     44.34426656369664
    21.99660475743629     44.352197236185795
    21.891523346954997     44.50486268160201
    21.562400438655096     44.5246893628249
    21.44740568756236     44.64959745452908
    21.235260198477484     44.70312949383087
    21.217416185376887     44.90932697854888
    21.261034884067236     45.105611122655446
    20.880362604587834     45.24836322746022
    20.67614778799211     45.39111533226499
    20.656321106769227     45.64093151567335
    20.55322236441022     45.74997826239922
    20.36090355654823     45.86100767724738
    20.2102207792543     45.98591576895156
    20.079364683183258     46.02953446764191
    19.826574497591466     46.00574245017444
    19.646151698463207     46.065222493843095
    19.46374623121266     45.942297070261205
    19.31108078579644     45.86893834973653
    19.154450004135644     45.874886354103396
    18.781708397145398     45.73015158117633
    18.731150360027033     45.89669570344857
END
END
