br_iberian-peninsula_west-europe
1
    -1.7194059256319307     43.46741590776472
    -1.596493141481864     43.34450312361465
    -1.3506675731817304     43.32789328791869
    -1.2310767561708547     43.15515099668076
    -1.1912131505005628     43.1019995224537
    -0.8656603708598452     43.002340508277975
    -0.7527134881273514     43.01895034397393
    -0.6231567696989025     42.96247690260768
    -0.5899370983069926     42.88939362554548
    -0.4437705441825889     42.87278378984953
    -0.3075698914757581     42.915969362659006
    -0.09828596170672545     42.81963231562247
    -0.015236783226950587     42.76315887425622
    0.18740321226370008     42.806344447065705
    0.5694294332706644     42.76648084139541
    0.6059710718017653     42.915969362659006
    0.7886792644572697     42.925935264076585
    1.170705485464234     42.82627624990085
    1.8151671104672868     42.66349986008049
    1.845064814720006     42.53726510879124
    2.014485138818747     42.55387494448719
    2.1174661201336673     42.47414773314661
    2.3101402142067453     42.517333305956086
    2.555965782506879     42.42099625891955
    2.8649087264516413     42.54390904306962
    3.1871395389531676     42.56051887876557
    3.2535788817369875     42.361200850414114
    3.09412445905582     42.3279811790222
    2.991143477740899     42.38777658752764
    2.7685716794151025     42.344591014718155
    2.7253861066056193     42.25821986909919
    2.4961703740014407     42.25489790196
    2.253666772840498     42.35455691613573
    2.0178071059579374     42.261541836238386
    1.855030716137579     42.39109855466683
    1.6690005563428831     42.4409280617547
    1.6391028520901643     42.53726510879124
    1.5261559693576705     42.54723101020881
    1.3733454809548846     42.50404543739933
    1.3301599081454016     42.63028018868858
    1.117554011237178     42.62031428727101
    1.0311828656182123     42.69339756433321
    0.7554595930653597     42.743227071421074
    0.8119330344316066     42.57380674732234
    0.40665304345030523     42.60702641871425
    0.17909829441572261     42.64024609010615
    -0.023541701074928062     42.5870946158791
    -0.2461134994007247     42.7332611700035
    -0.43878759347380236     42.7000414986116
    -0.6381056218252621     42.68675363005483
    -0.8208138144807667     42.86613985557114
    -1.285889213967506     42.97576477116445
    -1.3656164253080898     42.94586706691173
    -1.5383587165460215     42.995696573999595
    -1.5616124865203584     43.12193132528885
    -1.5350367494068307     43.181726733794285
    -1.6978131392271893     43.19501460235105
    -1.83401379193402     43.27806378083083
    -1.9237069046921769     43.45080607206876
    -1.7194059256319307     43.46741590776472
END
END
