br_south-eastern-europe_south-europe
1
    18.93840039988     45.97934546088058
    19.078499545748926     45.77161224459217
    19.064006530659036     45.602527068543466
    19.204105676527963     45.53972400315395
    19.16545763628826     45.399624857285026
    19.493965978325736     45.29334274662584
    19.576093063835106     45.18706063596665
    19.518121003475553     45.07594752027751
    19.23309170670774     45.07594752027751
    19.223429696647813     44.988989429738176
    19.489134973295773     44.92618636434866
    19.257246731857553     44.38511380099281
    19.387683867666553     44.32231073560329
    19.798319295213403     44.04211244386544
    19.721023214733997     43.94066133823622
    19.551938038685293     43.882689277876665
    19.440824922996146     43.882689277876665
    19.634065124194663     43.64113902637852
    19.551938038685293     43.52036390062944
    19.440824922996146     43.457560835239924
    19.160626631258296     43.418912795000224
    19.141302611138443     43.25948962901143
    19.02052748538937     43.14354550829233
    18.87076632946052     43.2256725938017
    18.745160198681482     43.11939048314251
    18.759653213771372     42.93581229200392
    18.60506105281256     42.93098128697395
    18.595399042752632     42.81986817128481
    18.701681153411815     42.69909304553573
    18.60506105281256     42.49619083427729
    18.60506105281256     42.240147567689256
    18.373172811374335     42.307781638108736
    18.29587673089493     42.67976902541589
    18.421482861673965     42.69426204050577
    18.329693766104672     42.81503716625485
    18.416651856644002     43.1338834982324
    18.551919997482965     43.14354550829233
    18.60506105281256     43.33678570949084
    18.74032919365152     43.44306782015003
    18.943231404909962     43.65080103643843
    19.11714758598863     43.67495606158825
    19.30072577712722     43.72809711691784
    19.107485575928703     43.96481636338602
    19.112316580958666     44.051774453925354
    19.21859869161785     44.11457751931488
    19.049513515569146     44.2546766651838
    18.97221743508974     44.37545179093287
    19.03502050047926     44.544536966981575
    19.175119646348183     44.776425208419795
    18.991541455209592     44.75710118829994
    18.899752359640296     44.790918223509685
    18.89009034958037     44.97449641464828
    19.044682510539186     45.23537068626627
    18.85627331437063     45.303004756685745
    18.83694929425078     45.481751942794375
    18.759653213771372     45.53972400315393
    18.778977233891222     45.96485244579067
    18.93840039988     45.97934546088058
END
END
