br_scandinavia_west-europe
1
    8.624779713989637     54.94529176785886
    8.756232545918573     54.928860163867746
    8.833909219331128     54.94081042131583
    8.987768783975223     54.92139125296269
    9.063951675206765     54.90346586679057
    9.198392071497723     54.89898452024754
    9.289512784539372     54.86462753008429
    9.28801900235836     54.83923323300711
    9.344782725236765     54.83176432210206
    9.394077537210116     54.86163996572227
    9.468766646260649     54.86163996572227
    9.58976300292251     54.89749073806652
    9.655489418886978     54.882552916256415
    9.830261934065222     54.85566483699822
    9.960220983813148     54.840727015188115
    11.261305263473414     54.64504154947572
    11.337488154704955     54.70927418325918
    11.456990729185806     54.683879886182
    11.431596432108625     54.58977160877833
    11.246367441663306     54.420974222324126
    11.14030890681155     54.45533121248737
    11.192591283146923     54.604709430588436
    9.875822290586047     54.82280162901599
    9.402293339205675     54.80935758938689
    9.338060705422219     54.764544123956576
    9.20362030913126     54.78545707449072
    9.197645180407218     54.834751886464076
    8.894407397662059     54.87956535189439
    8.75249809046605     54.869108876627315
    8.579219357468816     54.89599695588551
    8.624779713989637     54.94529176785886
END
END
