br_south-europe_west-europe
1
    13.772153166967716     48.88091346455253
    13.952075392036276     48.75096963533635
    13.85211860033152     48.43110790188113
    13.592230941899155     48.351142468517324
    13.382321679319165     48.20120728096019
    13.032472908352519     48.08125913091448
    13.182408095909652     47.901336905845916
    13.242382170932506     47.641449247413554
    13.14242537922775     47.28160479727643
    12.632645741533493     47.49151405985642
    12.332775366419224     47.521501097367846
    11.79300869121354     47.451531343174516
    11.33320744937166     47.28160479727643
    10.963367320064062     47.251617759765004
    10.62351422826789     47.42154430566309
    10.513561757392658     47.27160911810596
    10.263669778130767     47.121673930548816
    10.083747553062206     47.181648005571674
    9.853846932141266     47.42154430566309
    9.50399816117462     47.42154430566309
    8.794304940070848     47.571479493220224
    8.58439567749086     47.46152702234499
    8.254538264865165     47.48151838068594
    8.074616039796604     47.44153566400404
    7.604819118784248     47.44153566400404
    7.384914177033784     47.321587513958335
    7.194996272794747     47.34157887229928
    6.995082689385234     47.11167825137834
    6.595255522566209     46.88177763045741
    6.6152468809071605     46.78182083875265
    6.265398109940513     46.541924538661235
    6.245406751599562     46.461959105297424
    6.485303051690977     46.55192021783171
    6.705207993441441     46.611894292854565
    6.905121576850954     46.56191589700219
    6.995082689385234     46.17208440935364
    7.175004914453796     45.962175146773646
    7.025069726896661     45.762261563364135
    7.304948743669979     45.46239118824986
    7.264966026988077     45.29246464235178
    7.145017876942369     45.17251649230607
    6.875134539339527     45.02258130474893
    6.965095651873807     44.982598588067034
    7.145017876942369     44.90263315470323
    7.204991951965223     44.68272821295277
    7.0050783685557105     44.5028059878842
    7.075048122749039     44.36286647949754
    7.414901214545211     44.25291400862231
    7.724767268829956     44.31288808364516
    7.844715418875664     44.03300906687185
    7.674788872977578     43.883073879314715
    7.71477158965948     43.7231430125871
    7.414901214545211     43.623186220882346
    7.424896893715687     43.943047954337565
    7.484870968738541     44.023013387701376
    7.314944422840455     44.023013387701376
    6.965095651873807     44.17294857525851
    6.805164785146197     44.31288808364516
    6.715203672611917     44.522797346225154
    6.885130218510002     44.76269364631657
    6.7251993517823925     44.8326634005099
    6.555272805884306     44.94261587138513
    6.5052944100319285     45.15252513396512
    6.915117256021429     45.29246464235178
    6.965095651873807     45.39242143405654
    6.645233918418588     45.79224860087556
    6.855143180998575     45.962175146773646
    6.705207993441441     46.0621319384784
    6.705207993441441     46.20207144686506
    6.635238239248111     46.33201527608124
    6.425328976668124     46.32201959691077
    6.45531601417955     46.24205416354696
    6.175436997406233     46.082123296819354
    5.855575263951012     46.00215786345555
    5.785605509757683     46.222062805206015
    5.955532055655769     46.352006634422196
    5.915549338973866     46.56191589700219
    6.235411072429086     46.851790592945974
    6.275393789110988     47.001725780503115
    6.745190710123343     47.251617759765004
    6.745190710123343     47.37156590981071
    6.785173426805246     47.571479493220224
    7.075048122749039     47.641449247413554
    7.334935781181406     47.5814751723907
    7.704775910489005     47.68143196409545
    8.244542585694688     47.72141468077736
    8.35449505656992     47.83136715165259
    8.624378394172764     47.901336905845916
    8.864274694264179     47.81137579331164
    9.923816686334595     47.68143196409545
    10.293656815642194     47.47152270151547
    10.293656815642194     47.67143628492498
    10.793440774165976     47.67143628492498
    11.123298186791672     47.521501097367846
    12.022909312134479     47.73141035994783
    12.032904991304955     47.79138443497069
    12.802572287431579     47.78138875580021
    12.672628458215396     47.94131962252782
    12.52269327065826     48.17122024344876
    13.292360566784884     48.45109926022208
    13.392317358489642     48.690995560313496
    13.69218773360391     48.65101284363159
    13.772153166967716     48.88091346455253
END
END
