overlap_central-europe_scandinavia
1
    14.230261589575525     53.162314733303255
    14.15479971852971     54.0148733189485
    13.92199181849475     54.326354233478035
    13.695606205357306     54.58485128110306
    13.554315893611951     54.61054042869313
    13.464403877046726     54.62177943076378
    13.459587161873587     54.69724130180959
    13.252468409428692     54.69081901491208
    12.899242630065308     54.581640137654304
    12.523538846560614     54.57200670730803
    12.237747079621144     54.3375932355487
    11.626024252632732     54.32314309002929
    11.284037475339998     54.5366841293717
    11.137930448421507     54.575217850756786
    10.71887622835858     54.560767705237375
    10.351200303475782     54.5896679962762
    10.174587413794088     54.734169451470315
    10.776676810436223     55.78742450266298
    11.707908410576062     56.397541757927016
    12.94740978179668     56.97554757870347
    15.407145663545359     56.92416928352334
    16.164975517452262     57.99669119540853
    16.18424237814481     59.120591402473856
    18.287541337081343     59.6985972232503
    18.865547157857794     60.700473979262824
    21.68493110586739     61.599594144915095
    23.919886946203004     61.67666158768529
    27.1438749687561     61.45830383316974
    29.931147482278107     61.34270266901445
    27.991616839228232     60.122468158486384
    26.373200541054167     59.839887534995675
    25.66674898232739     59.71144179704535
    24.63918307872481     59.621529780480124
    22.87947646880539     59.249037140424186
    21.877599712792872     58.96645651693348
    21.31243846581145     58.24716038441167
    21.08123613750087     57.078304169063735
    20.85003380919029     56.21771772479657
    20.90141210437042     55.48557701847973
    21.068391563705838     55.036016935653606
    22.070268319718352     54.70205801698273
    22.39138266459416     53.494668080249696
    20.24633884082377     53.4561343588646
    18.794902001985122     53.88000529410066
    17.215019425196154     53.73871498235531
    15.095664749015828     53.04510799742357
    14.230261589575525     53.162314733303255
END
END
