overlap_scandinavia_uk-iceland
1
    4.429446887175207     55.69944874102983
    0.29754748405983833     53.02850292296393
    -0.1685235982872306     53.248094105992834
    -0.39483696038845195     53.46992601537918
    -0.7421495457913164     53.4654445626643
    -1.0939435839090565     53.56179579603413
    -1.0804992257644295     53.7791462527056
    -0.571854342626041     53.837405137998985
    -0.2783191898016845     54.11973665903615
    0.06675266924374211     54.166791912542344
    3.418879299970743     55.55156080143894
    -0.6771684814256199     60.75900885612447
    -0.7981677047272628     60.853119363136855
    -1.0312032459007976     60.875526626711235
    -5.794987481813636     61.686669568103724
    -6.709203835648273     60.76349030883934
    -8.322526813003513     62.1885922721698
    -7.8923073523754494     62.67258916537637
    -13.054940879912222     64.99398167168196
    -14.10360081519313     64.2859121427316
    -15.66314635996986     63.86465558753329
    -17.28543224275485     63.53302808663249
    -18.647793868077056     63.20140058573169
    -18.504387381201035     65.10153653683898
    -18.638830962647305     66.05160451239261
    -17.94868724455645     67.41396613771482
    -14.623449330118703     66.71485951419422
    -13.32382804280476     65.74686572778107
    -12.786053717019678     65.06568491511997
    -7.040831336549068     62.52021977307059
    -6.395502145606971     62.51125686764084
    -5.902542346970647     62.42162781334333
    -5.7949874818136315     61.865927676698746
    -0.7219830085743736     60.96067422829386
    4.610945722127674     58.719947870856025
    5.148720047912755     59.75964490070718
    6.6500067073961056     59.9971618945956
    7.160892316891932     59.01572375003783
    8.079590123441443     58.95298341202957
    8.948991950127326     59.49075773781465
    9.558469519350414     59.75068199527743
    10.248613237441267     59.86271831314932
    10.521981853048684     59.50868354867415
    10.620573812775948     59.15016733148409
    9.840801040387582     58.61687445841389
    8.599438638367022     57.7878057061619
    4.429446887175207     55.69944874102983
END
END
