overlap_uk-iceland_west-europe
1
    -3.8960363337535693     48.35070296160243
    -6.675364612181008     49.7606541685419
    -8.450483038183934     51.287256014904415
    -8.72435845248153     51.99223161837415
    -8.379478301143818     52.42333180754629
    -7.801296870960008     52.85950376364986
    -7.537564990525287     53.087733275564524
    -6.081967881202887     53.72677590892558
    -5.64579592509931     53.39203929145074
    -5.64579592509931     50.29826146327421
    -4.540150734046058     51.084385337646935
    -4.114122311805356     51.348117218081654
    -3.2620654673239513     51.363332518875964
    -2.5672333977170916     51.65749500089931
    -1.598525913812637     51.67271030169362
    -1.365224634966538     51.90093981360828
    -0.6602490314968044     52.69720722184388
    -1.284076364063547     53.50868993087379
    -1.7658942225500558     54.477397414778245
    -1.7608224556186187     55.481607267202754
    -1.4666599735952766     55.669262643665924
    4.279651959722768     52.98122617000435
    4.791900419797898     53.25510158430194
    5.385297150776019     52.73270959036394
    5.025201698643997     52.28639410039749
    4.685393314237722     51.971944550648395
    4.842618089112267     51.56620319613344
    4.512953238568866     51.09452887150981
    3.7674034996476373     50.866299359595146
    3.1689350017380793     50.551849809846054
    2.5958253384857057     49.84180243944488
    1.900993268878846     49.64400352911885
    1.2416635677920447     49.34984104709551
    -0.036421698930062474     48.954243226443424
    -0.6602490314968052     48.74122901532308
    -1.3601528680351016     47.91453100549885
    -2.2122097125165063     47.9348180732246
    -3.3432137382269427     48.345631194671
    -3.8960363337535693     48.35070296160243
END
END
