overlap_central-europe_south-europe
1
    19.520620421404466     44.68329045685759
    16.8682159327303     44.88238135068059
    15.994784914668108     45.57598833561234
    15.230532773863688     46.141149582593755
    15.050708740733237     46.314551328826695
    14.684638387574816     46.99531373996341
    13.991031402643074     47.476985257277114
    13.284579843916298     47.65038700351004
    12.629506580369652     47.64396471661252
    12.436837973444169     48.324727127749235
    13.393758721174072     48.85777694024307
    14.382790903391557     50.32848063977427
    16.95170566239801     49.39082675273691
    17.960004705308044     49.39724903963443
    18.32607505846646     48.52381802157223
    19.173816928938592     47.71460987248521
    19.417863831044205     45.78150151633286
    19.6940221676374     45.33194143350673
    19.520620421404466     44.68329045685759
END
END
