overlap_south-eastern-europe_south-europe
1
    18.39184344644602     39.714751819098204
    17.910025587959513     39.95312486487574
    17.813662016262214     40.21685674531046
    17.382561827090072     40.206713211447585
    16.997107540300867     40.424799189499375
    16.824667464632018     40.62513398329114
    16.72323212600328     40.87111467946583
    16.15519422968234     41.12216714257196
    15.749452875167387     41.23374601506357
    15.422323908089702     41.48733436163542
    15.097730824477738     41.756138009001575
    14.610841199059793     41.98436752091624
    14.05548272006745     42.354606506911125
    13.845004392412818     42.570156601497196
    13.616774880498156     43.01393620799793
    13.439263037897863     43.368959893198515
    12.89658397623411     43.69101709334476
    12.447732602801942     43.96996427457379
    12.163713654641473     44.18551436915986
    12.024240064026959     44.48982038504608
    11.98620181204118     44.86513113797241
    11.768115833989393     45.35455664685607
    11.816297619838044     45.559963207579266
    12.323474312981737     45.940345727437034
    13.038593450314345     46.05699636686008
    13.512803658403698     46.130536987365915
    13.928688546781526     45.95048926129991
    14.164525709093343     45.506709654799174
    14.570267063608298     45.46359963588196
    15.183950862312168     45.48388670360771
    15.338639753720994     45.423025500430455
    15.32849621985812     44.95642294273826
    15.688591671990142     44.510107452771805
    15.82552937913894     44.134796699845474
    16.47471554636287     43.769629480782015
    16.992035773369434     43.521112901141606
    17.255767653804156     43.76455771385058
    17.803518482399344     45.0172841459155
    18.178829235325676     45.43316903429332
    18.528781153594824     46.04178106606575
    19.172895553887315     46.13307287083162
    19.634426344648077     46.2953694126376
    19.964091195191475     46.27508234491185
    19.89308645815136     45.8693409903969
    19.97930649598579     45.473743169744814
    20.283612511872004     45.10350418374992
    20.532129091512413     44.81441346865802
    20.334330181186374     44.423887414937376
    20.55241615923816     43.94206955645086
    20.197392474037574     43.688481209879015
    19.903229992014232     43.24723748684401
    19.789115236056904     42.92264440323204
    19.545670423347932     42.59805131962008
    19.31744091143327     42.321640021856766
    19.46452215244494     41.96661633665618
    19.393517415404823     41.7079562231529
    19.205862038941657     41.67498973809856
    18.759546548975205     40.26757441462481
    18.39184344644602     39.714751819098204
END
END
