overlap_south-europe_west-europe
1
    7.995989178733177     40.715157846324125
    4.557331199218935     43.46912729009438
    4.455895860590197     44.08281108879826
    4.572546500013247     45.11237977587996
    4.526900597630315     46.09630256057872
    5.439818645288963     47.262808954809216
    5.967282406158405     47.97285632521039
    6.717903912011071     48.368454145862465
    8.117711585087664     49.027783846949276
    8.858189557077456     49.06835798240078
    11.181058811675571     48.58146835698283
    12.225842799551579     49.200223922618136
    14.102396564183245     49.0176403130864
    15.309477093865235     49.0582144485379
    15.137037018196379     47.90185158817028
    13.889382353062894     47.3135266241236
    11.941823851391112     46.704914592351166
    10.257997230154048     46.664340456899666
    9.750820537010355     46.806349930979906
    8.624888278231357     46.968646472785885
    7.823549103064321     46.897641735745765
    7.701826696709835     46.51218744895656
    8.097424517361915     45.84271421400688
    8.919050760254699     45.04137503883985
    9.730533469284609     45.12252330974284
    11.41436009052167     44.605203082736274
    11.556369564601903     43.763289772117744
    12.033115656156976     43.43869668850578
    12.509861747712048     42.62721397947587
    12.895316034501253     42.01860194770344
    13.138760847210225     41.33898517889089
    12.246129867277325     41.51142525455974
    11.75924024185938     41.907023075211825
    9.715318168490294     39.78702449787119
    9.34000741556396     39.85295746797987
    9.116849670580736     40.339847093397815
    8.49809410494543     40.50721540213523
    8.041635081116105     40.441282432026554
    7.995989178733177     40.715157846324125
END
END
