overlap_baltics-russia_south-eastern-europe
1
    36.47659461471423     44.578511427881374
    36.60341291017149     44.93867538698
    36.532394664715426     45.21767563698598
    36.605949276080636     45.31025299266978
    36.65921296017269     45.354639396079826
    36.664285691990976     45.62603054835837
    36.801249451084814     45.67548968358669
    37.3161317306413     45.5917896085849
    37.3440317556419     45.77948068586164
    39.28435167613803     45.789626149498226
    41.12068059435919     45.33815301767039
    42.74395477621216     45.125098281302186
    43.068609612582755     44.44535221765126
    42.55119096711713     43.85184259491126
    41.94753588074056     43.486605903994345
    41.99826319892346     43.35978760853708
    42.835263948941396     43.227896581261525
    43.92590128987386     42.903241744890934
    45.36655712626837     42.75105979034222
    45.09770233989897     41.48287683576959
    44.331719835337104     40.9958945812137
    43.05846414894618     40.05743919482995
    40.167007012520585     39.49436596299971
    37.1639497760926     39.73785709027766
    34.510911035126654     40.13353017210432
    32.456454648718996     39.57045694027407
    29.2454154077411     39.935693631190986
    27.835195962256336     40.56471237665902
    26.764849548597034     41.30025849031114
    26.14597626676559     42.167695631238814
    25.983648848580295     43.29384209489931
    26.43004924858986     44.48086134037929
    28.154778066808635     44.36418850855861
    29.539633853201945     43.97866089036853
    34.06451063511709     44.135915576735535
    36.47659461471423     44.578511427881374
END
END
