overlap_central-europe_south-eastern-europe
1
    42.865633293875604     41.664815615025
    42.75003212972031     40.79780688386032
    42.19771545653393     40.00144330856832
    38.65261308910502     39.68675125059003
    36.56536984741227     40.22622334998138
    34.12490082635614     40.45742567829196
    32.44868394610443     39.8344638492329
    29.301763366321527     39.76381869336021
    27.97234997853569     39.84730842302792
    25.987863327203204     39.66748438989747
    25.506191809889494     40.16842276790373
    26.032819335485815     40.80422917075782
    26.19337650792372     41.54921445086969
    23.142790231603556     42.35842259995674
    22.680385574982395     42.75660438760274
    21.498684785839426     43.23185361801894
    20.419740587056715     44.5355778582147
    19.66191073314981     44.940181932758215
    18.480209944006845     44.92091507206567
    18.281119050183843     45.441120310764475
    18.165517886028553     46.11546043500367
    18.86554715785781     47.746721306972766
    20.053670233898295     47.79167731525538
    20.721588071239974     46.77053369855032
    21.498684785839426     46.468686214367054
    22.51982840254449     45.98701469705335
    23.142790231603556     45.96132554946328
    23.88135322481791     44.888803637578086
    24.388713889721686     44.72182417824267
    25.11443230914101     45.062205383811026
    26.174109647231177     45.023671662425926
    28.177863159256212     45.56314376181728
    28.621000955184826     46.2053724515689
    28.91000386557305     46.53290908334222
    29.82839089191786     47.07238118273357
    30.162349810588697     47.89443390561564
    32.54501824956718     48.81282093196046
    37.207598537163896     48.594463177444894
    39.94349275550577     48.67153062021509
    40.123316788636224     48.266926545671566
    39.94349275550577     47.907278479410664
    39.69302356650264     47.66965386420258
    38.7617919663628     47.55405270004729
    38.35718789181929     46.92466858409071
    37.54797974273225     46.77695598544784
    37.65715861999003     46.37235191090432
    37.355311135806765     45.569566048714805
    36.72592701985019     45.46680945835455
    36.68097101156757     45.28056313832658
    36.5332584129247     45.197073408658866
    37.03419679093096     44.86311448998803
    39.615956123732445     43.45021137253449
    42.865633293875604     41.664815615025
END
END
