overlap_iberian-peninsula_west-europe
1
    -3.070264231169245     42.69203223610319
    -2.398046323937895     43.47628646120643
    -1.815457471004058     43.592804231793195
    -1.250794428929724     45.04031345869804
    -0.38139260224384447     44.9193142353964
    0.6627858803221861     44.31431811888818
    1.4604844635700547     44.045430955995634
    2.316441932111307     43.43147193405767
    3.2665099076649486     44.0140607869915
    4.767796567148297     44.26950359173943
    6.470748598801053     43.861691394685735
    7.792777149689375     44.03646805056589
    7.819665865978629     43.62417440079732
    9.580876782924767     43.211880751028765
    9.769097796949545     42.79062419583045
    9.916985736540441     42.14977645760323
    9.782542155094172     41.25796736734298
    8.482920867780228     41.17281976576034
    1.115412604524624     40.94874713001657
    0.5059350353015336     41.34311496892562
    -0.7936862520124108     41.41481821236363
    -1.510718686392518     41.81814895670244
    -2.501119736380041     42.315590208053635
    -2.9716722714419865     42.472441053074284
    -3.070264231169245     42.69203223610319
END
END
