overlap_iberian-peninsula_uk-iceland
1
    -1.7435714962714612     43.63324654911371
    -1.4866800203708157     42.65705894069126
    -1.788527504554074     41.95060738196448
    -5.096005256774883     42.29098858753284
    -5.840990536886754     42.49650176825335
    -6.194216316250142     43.594712827728614
    -5.53272076580598     48.54629602571355
    -6.592398103896142     49.7986419707292
    -8.608996189716208     51.63541602341881
    -8.718175066973982     51.98221951588469
    -8.05667951652982     52.48315789389094
    -7.536474277831013     53.07400828846243
    -6.823600432206723     53.31163290367053
    -6.091459725889884     53.703392404419006
    -5.629055069268722     53.375855772645686
    -5.898791118964399     52.07213153244991
    -4.864802928464302     50.85189702192184
    -4.184040517327592     51.288612530952946
    -3.169319187520043     51.346413113030586
    -2.649113948821236     51.5904600151362
    -1.1462988148024609     51.31430167854301
    -0.9215187733893961     50.95465361228211
    -0.6903164450788153     50.64638384120133
    -1.4353017251906868     49.88213170039691
    -2.6619585226162683     49.76010824934411
    -5.28225157680285     48.47565086984088
    -5.01893781400469     47.89764504906442
    -1.7435714962714612     43.63324654911371
END
END
