overlap_baltics-russia_central-eruope
1
    41.0740663443451     41.36169724464659
    41.219561868336726     41.65268829262984
    41.43988366180975     41.889638145987625
    41.19461977850959     42.546446511435526
    39.8768460326426     43.14921368225797
    38.563229301746794     44.04297190106366
    37.63621496317159     44.400475188585936
    37.054232867205094     44.58338384731827
    36.78818390904898     44.85358982044556
    34.62653612403057     44.33811996401809
    33.961413728640295     43.98893070643819
    33.11338267451769     44.13858324540101
    32.814077596592064     44.8369617605608
    32.03255878200848     45.13626683848643
    32.31523580004935     45.751505054222434
    31.118015488346845     46.11732237168709
    30.619173691804136     45.43557191641205
    30.236728314454727     44.853589820445556
    29.5882339789492     44.33811996401809
    29.189160541715033     44.17183936517052
    28.98962382309795     43.20741189185461
    27.409958134046036     43.55660114943451
    28.091708589321073     45.818017293761464
    29.38869726033212     46.4997677490365
    30.519405332495595     47.21477432408105
    32.41500415935791     47.30622865344721
    34.24409074668118     47.372740892986236
    36.42236659158435     47.90483880929846
    36.95446450789657     48.553333144803986
    35.32491463919038     49.06880300123145
    34.21083462691166     49.65078509719795
    32.19883938085607     50.482188091435795
    30.43626503307183     49.96671823500833
    28.457525906785747     49.99997435477784
    27.409958134046057     50.28265137281871
    24.40027929490504     50.39904779201201
    23.119918683778753     50.81474928913094
    22.08897897092382     51.13068242694132
    20.808618359797528     52.16162213979625
    20.210008203946277     53.05953737357313
    20.010471485329195     53.15930573288167
    14.689492322206958     52.860000654956046
    13.758320968660565     53.15930573288168
    13.941229627392893     54.57269082308602
    14.323675004742304     54.2733857451604
    15.936596813563732     54.52280664343175
    16.518578909530227     54.90525202078116
    18.16475683812117     55.171300978937275
    19.378605209708432     54.805483661472614
    19.59476998821027     55.18792903882203
    20.16012402429201     55.28769739813057
    20.459429102217637     55.55374635628668
    20.59245358129569     55.9361917336361
    20.426172982448122     56.418405470294054
    20.55919746152618     57.08352786568433
    21.10792343772316     57.5989977221118
    21.523624934842083     57.798534440728886
    21.2076917970317     58.24749205761732
    21.15780761737743     58.86273027335333
    21.340716276109756     59.09552311173993
    22.25525956977139     59.39482818966555
    24.233998696057473     59.727389387360695
    27.24367753519849     60.17634700424913
    27.725891271856444     59.694133267591184
    27.89217187070401     59.52785266874361
    26.24599394211307     57.615625781996556
    26.112969463035014     56.31863711098551
    25.41459094787522     56.385149350524536
    24.91574915133251     56.18561263190745
    22.85386972562264     56.18561263190745
    23.070034504124482     55.72002695513426
    24.616444073406885     55.03827649985922
    24.350395115250773     53.89094036781099
    24.91574915133251     53.35884245149877
    26.22936588222831     53.37547051138352
    28.40764172713148     52.726976175878
    29.45520949987117     53.32558633172925
    30.50277727261086     53.109421553227406
    31.184527727885897     54.206873505621374
    32.764193416937815     54.24012962539088
    40.94519888023826     52.16162213979625
    42.30869979078833     50.714980929822396
    43.38952368329753     48.004607168607
    41.64357739539805     43.814336077648235
    42.125791132055994     43.44851876018358
    44.27081085718965     42.80002442467806
    44.20429861765062     41.636060232745066
    42.84079770710055     41.02082201700906
    41.0740663443451     41.36169724464659
END
END
