overlap_iberian-peninsula_south-europe
1
    -0.5297592726409125     38.029801231030895
    -0.8508736175167191     38.41513844488186
    -0.7352724533614288     39.46839349607451
    -0.4270026822806543     40.28402393205906
    0.7932318282474111     41.40792413912438
    2.6878064630146703     42.54466891998474
    3.81812895697751     42.499712911702126
    7.388920471996481     44.05390634090102
    8.564198974241933     45.01724937552844
    9.739477476487385     44.71540189134519
    10.638597642139645     44.073173201593576
    12.045078472695678     43.475900520124576
    12.770796892115001     42.10153112405612
    12.475371694829258     41.459302434304504
    9.598187164742031     38.75551965045022
    8.3522635066239     38.60780705180734
    1.9620880435953467     38.20962526416134
    -0.5297592726409125     38.029801231030895
END
END
