overlap_central-europe_west-europe
1
    15.172732191786032     48.478862013289636
    14.376368616494032     47.92654534010325
    13.014843794220612     48.26050425877409
    10.638597642139642     49.211002719606476
    10.39455074003403     50.75235157501035
    11.101002298760804     51.54871515030235
    12.565283711394482     52.01111980692351
    13.143289532170934     53.03868571052609
    12.757952318319965     54.82408146803558
    13.669917057767258     55.06812837014119
    14.491969780649322     54.77270317285545
    14.748861256549967     54.68279115629022
    15.288333355941322     54.246075647259126
    16.534257014059452     51.38173569096693
    16.495723292674356     50.778040722600416
    16.071852357438292     50.25141319700409
    14.787394977935064     49.955987999718346
    15.172732191786032     48.478862013289636
END
END
