overlap_scandinavia_west-europe
1
    7.908501199165877     53.053498848777295
    7.310032701256318     53.981632197230255
    7.604195183279661     55.71617648778168
    8.66419447194998     55.635028216878695
    9.450318346322705     55.731391788576
    9.764767896071794     55.95454953355922
    10.094432746615196     56.29942968489694
    10.56610707123883     56.36536265500562
    12.138354819984281     56.385649722731365
    12.589742076882168     56.87253934814932
    13.101990536957297     57.034835889955296
    13.766392004975536     56.66966867089184
    14.359788735953657     56.73560164100052
    15.485720994732656     56.81167814497207
    16.038543590259284     57.43043371060738
    16.337777839214063     58.211485818048665
    16.00811298867066     58.66287307494655
    16.505146147951482     58.78459548130104
    17.666580775250537     58.20134228418579
    17.575288970484674     56.4312956251143
    15.176343211915004     54.42794768719671
    14.648879451045563     53.96641689643595
    14.78581715819436     52.292733809061765
    13.26428707876328     52.2978055759932
    12.660746813922286     52.73397753209678
    12.42237376814475     53.089001217297366
    11.509455720486102     53.30201542841772
    10.611752973621764     53.44402490249795
    9.982853874123583     53.296943661486274
    8.801132179098778     52.88613054003988
    7.908501199165877     53.053498848777295
END
END
