overlap_baltics-russia_scandinavia
1
    19.422586117190612     54.343165424379436
    19.28090419348801     54.68725009622861
    18.572494574975007     55.017841251534676
    18.29250410670558     55.0853088342502
    17.52674704288438     55.01109449326312
    16.7441230833843     55.03808152634933
    16.38654489499202     54.980734081041135
    15.094540685989731     54.77495795375879
    14.56154678253709     54.85591905301742
    14.055539912170659     54.852545673881636
    13.586640212297764     54.83399208863487
    12.972685209586496     54.76821119548723
    12.343550000764237     54.53460469033473
    12.238975247555176     54.40472959360735
    11.9522380210142     54.39629614576791
    11.33153626003138     54.433403316261455
    11.210094611143436     54.526171242495295
    11.054919170897731     54.548098206877846
    10.95877786552811     54.45364359107611
    10.43927747861857     54.4899074167857
    10.297595554915969     54.43255997147751
    10.240248109607773     54.25714425641714
    10.061459015411634     54.25377087728137
    9.774721788870657     54.327985218268445
    9.34630263862708     54.57424189518011
    9.184380440109823     55.17470338134827
    9.457624150107694     55.96744747825568
    10.105312944176726     56.27442497961131
    10.928417453306118     56.375626353684595
    11.34334308700659     56.375626353684595
    12.071992980334251     56.68935061331178
    13.586640212297764     58.298452461077034
    15.111407581668606     58.88542043070209
    16.416905307213995     60.03911609513755
    16.582200884867028     62.160971571540784
    18.44430616781549     63.32141399424779
    20.08376842780273     63.321413994247784
    20.744950738414865     61.12871755599326
    21.446613598656313     61.182691622165684
    23.183903853581057     61.65496470117436
    26.004048811089948     61.428948299077355
    26.921607936021076     62.548910172155054
    25.909594195288214     68.06775843828491
    25.63972386442612     68.45907041803495
    23.548228800244875     71.34668295825938
    27.204971783426274     71.69751438838011
    32.21106642091816     70.51008493258689
    34.27557445201319     70.05130537012133
    34.96374379571154     64.74835336868114
    34.78832808065117     61.671831596853245
    33.29054774436654     60.06610312822377
    28.243972557245346     58.838193122801236
    25.363106775292465     57.111023005283826
    24.573736057520836     56.416106903313924
    24.681684189865674     55.795405142331106
    24.22965138567166     54.82387195122756
    23.345826052098293     54.02775447518437
    21.605162418037775     54.12895584925766
    19.422586117190612     54.343165424379436
END
END
